<svg width="51" height="53" viewBox="0 0 51 53" fill="none" xmlns="http://www.w3.org/2000/svg">
<path d="M25.7551 11.3301L27.3007 12.6483M30.9373 15.7497L34.6851 18.9461M38.6651 22.3404L39.9925 23.4725M48.6477 21.1868L24.2507 49.7932C23.9508 50.1449 23.5021 50.3448 23.0035 50.3492C22.505 50.3536 21.9973 50.162 21.5922 49.8165L15.5464 44.6604C16.2213 43.869 16.5065 42.8013 16.3392 41.692C16.1719 40.5828 15.566 39.523 14.6545 38.7456C14.2033 38.3591 13.6902 38.0534 13.1448 37.8464C12.5993 37.6394 12.0322 37.5352 11.4757 37.5394C10.9193 37.5436 10.3845 37.6563 9.90202 37.871C9.41957 38.0858 8.99881 38.3982 8.66406 38.7907L2.58188 33.6035C2.1768 33.2581 1.90742 32.787 1.83308 32.294C1.75874 31.801 1.88559 31.3266 2.18555 30.9749L26.5825 2.36853C26.8825 2.01682 27.331 1.81663 27.8295 1.81222C28.328 1.80782 28.8357 1.99946 29.2408 2.34494L35.2866 7.50109C34.9519 7.89359 34.7097 8.35845 34.5738 8.86875C34.4379 9.37905 34.411 9.92493 34.4947 10.4751C34.5784 11.0252 34.7711 11.5689 35.0616 12.0749C35.3521 12.5808 35.7347 13.0391 36.1876 13.4236C37.099 14.2009 38.2412 14.632 39.3629 14.6221C40.4847 14.6122 41.4941 14.1621 42.169 13.3707L48.215 18.5271C48.4222 18.6965 48.5979 18.9003 48.7322 19.1267C48.8665 19.3531 48.9566 19.5975 48.9969 19.8454C49.0373 20.0932 49.0271 20.3395 48.9671 20.5699C48.9072 20.8003 48.7985 21.0101 48.6477 21.1868Z" stroke="#F1FFF3" stroke-width="3.625" stroke-linecap="round" stroke-linejoin="round"/>
</svg>
