<svg width="34" height="58" viewBox="0 0 34 58" fill="none" xmlns="http://www.w3.org/2000/svg">
<path d="M3.61469 3.57018L1.66319 21.3109C1.66902 22.7241 2.09334 24.1039 2.88271 25.2761C3.67207 26.4483 4.79108 27.3604 6.09838 27.8972L4.74541 51.9803C4.71854 53.0294 5.10828 54.0465 5.8293 54.809C6.55032 55.5716 7.54418 56.0176 8.59317 56.0495C9.64216 56.0176 10.6357 55.5716 11.3568 54.809C12.0778 54.0465 12.4675 53.0294 12.4407 51.9803L11.5203 27.8972C12.8284 27.3616 13.9483 26.4499 14.7378 25.2774C15.5274 24.1049 15.9511 22.7245 15.9555 21.3109L14.37 3.57018M8.79263 4.16895V22.4863M31.4786 27.5646C30.8388 27.6501 30.2549 27.9741 29.8438 28.4716C29.4326 28.9691 29.2245 29.6034 29.261 30.2478L30.4808 51.9914C30.5076 53.0405 30.1179 54.0576 29.3969 54.8201C28.6758 55.5827 27.682 56.0287 26.633 56.0606C25.584 56.0287 24.5904 55.5827 23.8694 54.8201C23.1484 54.0576 22.7586 53.0405 22.7855 51.9914L23.6393 29.2278C23.6556 28.8077 23.5888 28.3886 23.4422 27.9947C23.2957 27.6008 23.0723 27.2398 22.7855 26.9325V1.66309C22.7855 1.66309 35.4813 2.19529 31.4453 27.5646H31.4786Z" stroke="#F1FFF3" stroke-width="3.32639" stroke-linecap="round" stroke-linejoin="round"/>
</svg>
