<svg width="51" height="53" viewBox="0 0 51 53" fill="none" xmlns="http://www.w3.org/2000/svg">
<path d="M44.4136 28.9653V47.867C44.4136 48.7372 44.068 49.5717 43.4527 50.187C42.8374 50.8023 42.0029 51.148 41.1327 51.148H9.26396C8.39379 51.148 7.55925 50.8023 6.94395 50.187C6.32865 49.5717 5.98303 48.7372 5.98303 47.867V28.9653M25.1983 16.9752C25.1983 16.9752 37.1523 16.2877 40.1196 13.9717C41.5362 12.8626 42.4565 11.2382 42.6802 9.45309C42.904 7.66795 42.4128 5.86678 41.3138 4.44239C40.204 3.01973 38.5758 2.09426 36.7857 1.86824C34.9956 1.64221 33.1888 2.134 31.7602 3.23615C28.817 5.55213 25.1983 16.9752 25.1983 16.9752ZM25.1983 16.9752C25.1983 16.9752 13.2443 16.2877 10.277 13.9717C8.85955 12.8627 7.93938 11.2372 7.71782 9.45116C7.49627 7.66514 7.9914 5.8641 9.09487 4.44237C10.2028 3.01698 11.831 2.08943 13.6221 1.86328C15.4132 1.63713 17.221 2.13086 18.6485 3.23613C21.5796 5.55211 25.1983 16.9752 25.1983 16.9752ZM25.1983 16.9752V51.148M4.84908 16.9752H45.5596C47.2384 16.9752 48.5994 18.3362 48.5994 20.015V24.5263C48.5994 26.2051 47.2384 27.566 45.5596 27.566H4.84908C3.17029 27.566 1.80936 26.2051 1.80936 24.5263V20.015C1.80936 18.3362 3.17029 16.9752 4.84908 16.9752Z" stroke="#F1FFF3" stroke-width="3.61872" stroke-linecap="round" stroke-linejoin="round"/>
</svg>
