<svg width="39" height="50" viewBox="0 0 39 50" fill="none" xmlns="http://www.w3.org/2000/svg">
<path d="M7.72276 21.2223L24.9493 27.9523M27.5169 23.9143C30.0751 24.3725 32.4079 25.6697 34.1469 27.6012C35.8858 29.5326 36.9318 31.9883 37.1199 34.5805C37.2979 37.2081 36.5857 39.8192 35.0979 41.9924C33.6101 44.1655 31.4335 45.7742 28.9194 46.5588C27.2982 47.0642 25.5857 47.2076 23.903 46.9789C22.2202 46.7503 20.6082 46.1551 19.1806 45.2354M35.4572 30.0109L20.0404 40.4961M25.0758 2.33512C29.8315 4.19598 32.1773 9.5622 30.3153 14.3208L19.558 41.8126C17.696 46.5712 12.3313 48.9203 7.57556 47.0594C2.81987 45.1985 0.474012 39.8324 2.33601 35.0738L13.0933 7.58198C14.9553 2.82337 20.3201 0.474255 25.0758 2.33512Z" stroke="#F1FFF3" stroke-width="3.39328" stroke-linecap="round" stroke-linejoin="round"/>
</svg>
